<?xml version="1.0" encoding="utf-8"?>
<!-- Generator: Adobe Illustrator 16.0.0, SVG Export Plug-In . SVG Version: 6.00 Build 0)  -->
<!DOCTYPE svg PUBLIC "-//W3C//DTD SVG 1.1//EN" "http://www.w3.org/Graphics/SVG/1.1/DTD/svg11.dtd">
<svg version="1.1" id="Layer_1" xmlns="http://www.w3.org/2000/svg" xmlns:xlink="http://www.w3.org/1999/xlink" x="0px" y="0px"
	 width="72px" height="53.715px" viewBox="0 0 72 53.715" enable-background="new 0 0 72 53.715" xml:space="preserve">
<g opacity="0.1">
	<polygon fill="#FFFFFF" points="9.282,4.246 0.675,-0.098 0.675,-0.113 0.675,-0.113 0.675,0.061 	"/>
	<polygon fill="#FFFFFF" points="18.248,8.605 35.675,-0.027 35.675,-0.1 18.509,8.405 18.509,-0.113 17.509,-0.113 17.509,8.247 	
		"/>
	<rect x="17.591" y="9.882" fill="#FFFFFF" width="0.002" height="0.185"/>
	<polygon fill="#FFFFFF" points="8.867,5.157 16.89,9.206 17.04,9.131 	"/>
	<polygon fill="#FFFFFF" points="18.675,26.978 31.292,33.112 18.823,26.819 18.823,9.939 35.656,18.434 35.656,35.233 
		36.174,35.485 36.656,35.247 36.656,18.437 53.674,10.006 53.674,9.934 53.508,10.016 53.508,9.518 52.962,9.243 36.158,17.567 
		19.441,9.131 36.158,0.85 40.922,3.167 36.172,0.77 18.675,9.438 	"/>
	<polygon fill="#FFFFFF" points="54.01,27.766 37.293,36.047 37.368,36.085 54.086,27.803 	"/>
	<polygon fill="#FFFFFF" points="55.365,9.167 55.457,9.122 55.384,9.086 55.293,9.131 	"/>
	<polygon fill="#FFFFFF" points="53.508,8.174 41.334,2.254 53.508,8.398 	"/>
	<polygon fill="#FFFFFF" points="35.656,36.857 35.656,36.933 35.675,36.924 35.675,36.848 	"/>
	<polygon fill="#FFFFFF" points="54.674,26.819 54.822,26.895 54.822,10.014 54.674,9.939 	"/>
	<polygon fill="#FFFFFF" points="30.815,33.991 34.963,36.085 35.041,36.046 	"/>
	<polygon fill="#FFFFFF" points="18.675,9.437 18.675,9.438 36.172,0.77 35.675,0.519 35.675,-0.027 18.248,8.605 19.31,9.122 	"/>
	<polygon fill="#FFFFFF" points="70.416,1.64 55.383,9.086 55.384,9.086 	"/>
	<polygon fill="#FFFFFF" points="36.675,-0.097 36.675,-0.011 41.334,2.254 	"/>
	<polygon fill="#FFFFFF" points="71.701,-0.113 71.674,-0.113 71.674,-0.1 	"/>
	<polygon fill="#FFFFFF" points="53.13,9.16 53.056,9.122 53.112,9.094 40.922,3.167 52.962,9.243 	"/>
	<polygon fill="#FFFFFF" points="54.245,8.533 54.508,8.403 54.508,-0.113 53.508,-0.113 53.508,8.174 	"/>
	<polygon fill="#FFFFFF" points="36.675,-0.097 36.675,-0.113 36.465,-0.113 36.675,-0.011 	"/>
	<polygon fill="#FFFFFF" points="35.675,-0.027 35.85,-0.113 35.675,-0.113 35.675,-0.1 	"/>
	<polygon fill="#FFFFFF" points="53.508,8.398 41.334,2.254 36.675,-0.011 36.675,0.52 36.172,0.77 40.922,3.167 53.112,9.094 
		54.245,8.533 53.508,8.174 	"/>
	
		<rect x="55.287" y="9.108" transform="matrix(-0.8963 0.4434 -0.4434 -0.8963 108.9782 -7.2611)" fill="#FFFFFF" width="0.101" height="0.001"/>
	<polygon fill="#FFFFFF" points="53.508,9.518 53.508,10.016 53.674,9.934 53.674,9.434 53.13,9.16 52.962,9.243 	"/>
	<polygon fill="#FFFFFF" points="35.675,0.519 36.172,0.77 36.675,0.52 36.675,-0.011 36.465,-0.113 35.85,-0.113 35.675,-0.027 	
		"/>
	<polygon fill="#FFFFFF" points="17.509,8.247 9.282,4.246 17.509,8.398 	"/>
	<polygon fill="#FFFFFF" points="1.309,36.039 1.31,36.039 1.295,36.046 1.296,36.047 16.052,28.736 	"/>
	<polygon fill="#FFFFFF" points="0.509,35.319 0.509,18.437 17.509,10.015 17.509,9.518 16.89,9.206 0.011,17.567 0,17.562 
		0,35.402 0.172,35.486 	"/>
	<polygon fill="#FFFFFF" points="0.011,0.85 8.867,5.157 0.173,0.769 0,0.854 0,0.855 	"/>
	<polygon fill="#FFFFFF" points="17.675,9.934 17.675,26.816 9.824,30.706 17.823,26.745 17.823,9.861 	"/>
	<polygon fill="#FFFFFF" points="17.675,9.934 17.823,9.861 17.823,9.434 17.205,9.122 18.248,8.605 17.509,8.247 17.509,8.398 
		9.282,4.246 0.675,0.061 0.675,0.52 0.173,0.769 8.867,5.157 17.04,9.131 16.89,9.206 17.509,9.518 17.509,10.015 17.675,9.932 	
		"/>
	<polygon fill="#FFFFFF" points="18.509,9.521 18.509,10.023 18.007,9.77 17.823,9.861 17.823,26.745 18.007,26.653 18.675,26.978 
		18.675,9.438 	"/>
	<polygon fill="#FFFFFF" points="17.823,9.434 17.823,9.861 18.007,9.77 18.509,10.023 18.509,9.521 18.675,9.438 18.675,9.437 
		19.31,9.122 18.248,8.605 17.205,9.122 	"/>
	<polygon fill="#FFFFFF" points="71.039,36.047 62.808,32.044 70.888,36.122 	"/>
	
		<rect x="53.512" y="4.152" transform="matrix(-0.8961 0.4439 -0.4439 -0.8961 121.4682 -20.1329)" fill="#FFFFFF" width="19.157" height="0"/>
	<rect x="71.59" y="36.798" fill="#FFFFFF" width="0.002" height="0.185"/>
	<polygon fill="#FFFFFF" points="72,0.855 72,0.855 70.416,1.64 	"/>
	<polygon fill="#FFFFFF" points="54.822,9.437 54.822,10.014 71.508,18.434 71.508,35.163 72,35.402 72,17.562 55.365,9.167 	"/>
	<polygon fill="#FFFFFF" points="53.822,26.743 53.822,9.932 53.674,10.006 53.674,26.816 	"/>
	<polygon fill="#FFFFFF" points="54.822,27.05 63.274,31.159 54.822,26.895 	"/>
	<polygon fill="#FFFFFF" points="54.508,9.521 54.508,10.023 54.006,9.77 53.674,9.934 53.674,10.006 53.822,9.932 53.822,26.743 
		54.006,26.652 54.822,27.05 54.822,26.895 54.674,26.819 54.674,9.939 54.822,10.014 54.822,9.437 55.365,9.167 55.293,9.131 	"/>
	<polygon fill="#FFFFFF" points="71.701,-0.113 71.674,-0.1 71.674,-0.099 54.508,8.405 54.508,8.403 54.245,8.533 55.383,9.086 
		70.416,1.64 72,0.855 72,-0.113 	"/>
	<polygon fill="#FFFFFF" points="53.13,9.16 53.188,9.131 53.112,9.094 53.056,9.122 	"/>
	<polygon fill="#FFFFFF" points="53.188,9.131 53.13,9.16 53.674,9.434 53.674,9.934 54.006,9.77 54.508,10.023 54.508,9.521 
		55.293,9.131 55.292,9.131 55.383,9.086 54.245,8.533 53.112,9.094 	"/>
	<rect x="35.674" y="53.716" fill="#FFFFFF" width="0.002" height="0.016"/>
	<rect x="35.675" y="36.924" fill="#FFFFFF" width="0.001" height="16.791"/>
	<polygon fill="#FFFFFF" points="36.656,35.247 36.656,35.321 53.674,26.89 53.674,26.816 	"/>
	<polygon fill="#FFFFFF" points="71.508,35.314 71.508,35.163 63.274,31.159 	"/>
	<polygon fill="#FFFFFF" points="71.508,36.931 71.508,36.435 70.888,36.122 54.01,44.484 37.368,36.085 36.676,36.428 
		36.676,36.855 53.508,45.351 53.508,53.715 54.508,53.715 54.508,45.354 	"/>
	<polygon fill="#FFFFFF" points="71.674,53.715 72,53.715 72,36.688 71.674,36.851 	"/>
	<polygon fill="#FFFFFF" points="62.808,32.044 54.246,27.723 54.086,27.803 	"/>
	<polygon fill="#FFFFFF" points="53.674,26.89 36.656,35.321 36.656,35.247 36.174,35.485 37.311,36.038 36.676,36.353 
		36.676,36.428 37.368,36.085 37.293,36.047 54.01,27.766 54.086,27.803 54.246,27.723 53.674,27.435 	"/>
	<rect x="35.675" y="36.847" fill="#FFFFFF" width="0.001" height="0.076"/>
	<polygon fill="#FFFFFF" points="53.674,26.89 53.822,26.816 53.822,26.743 53.674,26.816 	"/>
	<polygon fill="#FFFFFF" points="71.508,35.314 63.274,31.159 54.822,27.05 54.822,27.438 54.246,27.723 62.808,32.044 
		71.039,36.047 70.888,36.122 71.508,36.435 71.508,36.931 71.674,36.849 71.674,36.851 72,36.688 72,35.402 71.508,35.163 	"/>
	<polygon fill="#FFFFFF" points="53.822,26.743 53.822,26.816 53.674,26.89 53.674,27.435 54.246,27.723 54.822,27.438 
		54.822,27.05 54.006,26.652 	"/>
	<rect x="36.674" y="53.716" fill="#FFFFFF" width="0.002" height="0.02"/>
	<rect x="36.675" y="36.855" fill="#FFFFFF" width="0.001" height="16.859"/>
	<polygon fill="#FFFFFF" points="9.824,30.706 0.509,35.319 0.509,35.321 	"/>
	<polygon fill="#FFFFFF" points="18.011,27.767 30.815,33.991 18.248,27.649 16.052,28.736 	"/>
	<polygon fill="#FFFFFF" points="35.656,36.857 35.656,36.435 34.963,36.085 18.011,44.483 1.296,36.047 0.675,36.355 0.675,53.715 
		0.676,53.715 0.676,36.854 17.509,45.35 17.509,53.715 18.509,53.715 18.509,45.353 	"/>
	<polygon fill="#FFFFFF" points="35.656,35.314 35.656,35.233 31.292,33.112 	"/>
	<polygon fill="#FFFFFF" points="35.675,36.351 35.057,36.039 36.174,35.485 35.656,35.233 35.656,35.314 31.292,33.112 
		18.675,26.978 18.675,27.438 18.248,27.649 30.815,33.991 35.041,36.046 34.963,36.085 35.656,36.435 35.656,36.857 35.675,36.848 
			"/>
	<polygon fill="#FFFFFF" points="18.248,27.649 17.823,27.435 17.823,26.745 9.824,30.706 0.509,35.321 0.509,35.319 0.172,35.486 
		1.309,36.039 16.052,28.736 	"/>
	<rect x="0.985" y="35.853" fill="#FFFFFF" width="0.002" height="0.694"/>
	<polygon fill="#FFFFFF" points="17.823,26.745 17.823,27.435 18.248,27.649 18.675,27.438 18.675,26.978 18.007,26.653 	"/>
	<polygon fill="#FFFFFF" points="36.676,36.855 36.676,36.428 36.656,36.438 36.656,36.939 36.154,36.686 35.676,36.923 
		35.676,53.715 36.675,53.715 36.675,36.855 	"/>
	<polygon fill="#FFFFFF" points="37.311,36.038 36.174,35.485 35.057,36.039 35.675,36.351 35.675,36.848 35.676,36.848 
		35.676,36.923 36.154,36.686 36.656,36.939 36.656,36.438 36.676,36.428 36.676,36.353 	"/>
	
		<rect x="1.294" y="36.042" transform="matrix(0.9062 -0.4229 0.4229 0.9062 -15.1197 3.9319)" fill="#FFFFFF" width="0.016" height="0.001"/>
	<polygon fill="#FFFFFF" points="0,35.402 0,35.571 0.172,35.486 	"/>
	<polygon fill="#FFFFFF" points="0.509,36.438 0.509,36.939 0.007,36.686 0,36.689 0,53.715 0.675,53.715 0.675,36.355 	"/>
	<polygon fill="#FFFFFF" points="0.509,36.939 0.509,36.438 0.675,36.355 0.675,36.354 1.295,36.046 1.294,36.046 1.309,36.039 
		0.172,35.486 0,35.571 0,36.689 0.007,36.686 	"/>
	<polygon fill="#FFFFFF" points="0.675,-0.113 0.317,-0.113 0.675,0.061 	"/>
	<polygon fill="#FFFFFF" points="0,0.682 0,0.854 0.173,0.769 	"/>
	<polygon fill="#FFFFFF" points="0.675,0.52 0.675,0.061 0.317,-0.113 0,-0.113 0,0.682 0.173,0.769 	"/>
</g>
</svg>
