<?xml version="1.0" encoding="utf-8"?>
<!-- Generator: Adobe Illustrator 16.0.0, SVG Export Plug-In . SVG Version: 6.00 Build 0)  -->
<!DOCTYPE svg PUBLIC "-//W3C//DTD SVG 1.1//EN" "http://www.w3.org/Graphics/SVG/1.1/DTD/svg11.dtd">
<svg version="1.1" id="Layer_2" xmlns="http://www.w3.org/2000/svg" xmlns:xlink="http://www.w3.org/1999/xlink" x="0px" y="0px"
	 width="500px" height="500px" viewBox="0 0 500 500" enable-background="new 0 0 500 500" xml:space="preserve">
<g>
	<path fill="#FFFFFF" d="M243.186,245.047c-0.617,8.688-1.87,17.338-2.256,26.031c-0.273,6.156,0.551,12.354,0.732,18.539
		c0.118,4.027-4.194,5.936-8.147,6.182c-6.662,0.652-11.407,1.543-17.733,1.523c-7.922-0.027-16.903,0.254-24.804,0.543
		c-7.821,0.285-15.034-0.127-22.846,0c-12.991,0.211-25.304,1.357-38.304,1.197c-11.312-0.143-15.376-0.154-26.688,0
		c-2.173,0.029-5.566-0.311-7.733,0.217c0.078,0.441,0.196,1.203,6.536,1.414c26.826,0,40.822,1.619,66.077,1.619
		c-3.211,1.969-6.747,5.365-11.664,6.758c-1.75,0.494-2.856,0.27-4.08,0c-1.791-0.395-3.483-0.926-5.28-1.201
		c-5.784-0.887-11.601-2.086-16.47,2.939c-2.504,2.584-3.747,2.641-5.434,0.479c-0.683-0.875-1.074-1.061-1.768-2.461
		c-0.49-1.047-0.272-0.559-1.496-2.543c0.49,3.834,1.924,4.895,2.171,6.414c-2.525,0.129-3.518-0.01-9.175-2.457
		c3.159,3.648,12.684,5.311,16.486,2.432c4.262-3.225,8.768-3.248,14.357-2.404c-4.005,3.559-6.863,7.023-6.587,12.969
		c1.472-1.645,2.338-5.217,3.268-6.26c3.192-3.584,4.699-7.418,11.314-5.148c2.364,0.465,4.55-0.057,6.415-0.955
		c2.392-1.152,4.594-3.037,7.095-3.555c4.86-1.004,9.861-1.41,14.823-1.826c8.143-0.68,16.303-1.135,24.452-1.752
		c6.62-0.502,12.709,0.793,20.432,0.145c-3.566,3.889-4.957,6.66-8.91,8.145c-2.555,0.957-4.72,0.488-6.901,0.449
		c-3.675-0.062-6.905,0.482-10.573-0.002c-2.249-0.295-4.639-0.271-6.706-0.984c-6.157-2.123-9.04-2.477-14.67,0.533
		c-5.703,3.955-4.621,2.797-10.189,6.945c-1.248,0.91-7.884,6.816-7.761,7.107c4.459-2.131,10.661-7.398,15.56-7.451
		c1.14,9.373,0.433,8.504-3.174,13.025c0.768-0.234,1.508-0.287,2.038-0.648c3.833-2.611,3.718-6.611,3.351-10.51
		c-0.362-3.85,1.217-6.064,4.932-6.438c2.28-0.23,4.647,0.031,6.936,0.354c2.216,0.312,4.367,1.326,6.573,1.428
		c4.905,0.223,6.772,0.992,11.688,0.992c2.181,0.182,3.157-0.174,3.208,0.201c-2.522,0.803-5.06,1.561-7.564,2.414
		c-8.712,2.971-17.218,6.084-21.076,15.746c-1.609,4.031-5.127,5.186-9.702,3.896c-3.399-0.959-6.729-2.16-10.098-3.229
		c-10.113-3.209-18.88,6.283-21.71,17.027c2.938-3.836,1.524-4.488,6.42-10.145c0.915-1.143,2.656-2.443,3.209-2.176
		c-1.217,6.227,4.624,6.854-3.456,20.959c4.937-3.311,7.252-9.273,5.979-14.996c-1.747-7.852,0.834-10.01,8.573-8.848
		c5.439,0.816,9.848,3.885,15.08,5.273c-1.996,0.752-4.274,2.012-6.7,2.447c-7.66,1.381-12.101,6.141-13.955,13.287
		c-1.461,5.631-2.213,11.447-3.279,17.176c2.381-4.893,2.229-6.582,4.23-11.746c3.734-9.434,6.877-15.461,16.063-16.371
		c-5.891,4.893-6.435,8.32-6.816,13.215c-1.088,8.922,0.925,9.248-3.508,18.445c1.822-1.637,2.381-1.766,4.161-6.531
		c2.412-6.461,0.325-11.447,2.829-14.742c1.034-1.359,1.874-0.623,2.502-0.381c0.917,0.354,3.178,2.264,3.649,3.357
		c0.777,1.803,0.839,3.912,1.202,5.893c0.6-2.553,1.362-5.451,0.381-7.52c-0.938-1.977-3.838-4.193-5.069-5.049
		c-0.112-1.186,0.724-1.367,1.6-2.084c6.242-5.098,12.208-10.299,15.654-17.982c0.922-2.057,4.033-3.699,6.463-4.385
		c4.13-1.164,8.517-1.416,12.693-2.037c0.361,1.41,0.856,2.9,1.111,4.43c0.736,4.432,2.327,9.09-3.306,11.832
		c-2.937,1.43-5.723,3.168-8.579,4.762c-7.757,4.332-8.429,12.256-9.536,14.604c-0.33,0.701-1.927,2.035-2.412,2.285
		c-7.796,4.025-13.298,9.262-12.711,18.049c0.107,1.617-0.352,4.57-0.923,6.156c-1.229,3.412-1.399,3.326-2.611,6.746
		c-0.814,2.295-0.74,1.869-1.596,4.189c3.304-4.195,5.866-7.727,8.232-15.83c9.863,7.688,6.2,9.846,6.393,15.391
		c3.451-7.287,1.963-12.291-4.82-16.84c-0.687-0.459-1.093-2.225-0.802-3.111c1.908-5.805,5.328-8.127,11.196-11.27
		c0,8.326-0.06,7.873,0.925,15.504c0.085,0.656,0.273,6.781,0.528,6.83c1.067-2.688-0.062-18.504,0.941-21.027
		c0.054,3.318,3.784,9.023,4.605,10.516c-0.65-6.342-2.116-5.658-1.844-11.67c0.424-9.381,4.983-16.506,13.476-16.963
		c8.95-0.482,13.013-8.213,10.958-15.479c-2.709-9.58-0.915-14.09,6.202-17.338c3.846-1.754,7.423-3.146,6.801-8.375
		c-0.082-0.689,0.545-1.791,1.17-2.189c4.348-2.768,3.359-2.531,9.38-4.67c1.329-0.438,2.388-0.234,2.743,0.125
		c0.635,0.617,0.875,0.824,0.523,1.803c-1.723,4.777-2.309,8.449-4.066,13.215c-1.061,2.873-1.479,6.129-3.1,8.615
		c-2.299,3.521-3.92,7-3.295,11.215c0.708,4.783-1.102,8.359-4.776,11.301c-4.052,3.244-3.421,6.078-8.315,9.232
		c-6.093,3.318-7.729,3.48-11.762,4.936c-3.782,1.363-8.847,5.98-12.245,8.41c0.198,0.244,1.043-0.307,2.176-0.834
		c1.708-0.797,5.188-3.877,6.781-3.955c-0.688,1.85-2.322,6.758-2.621,7.963c-1.086,4.395-2.912,8.697-3.346,13.143
		c-0.662,6.779-5.094,9.285-8.031,16.139c-1.777,4.568-2.502,5.078-3.59,10.553c3.59-10.553,7.491-15.113,10.552-20.234
		c0.212,0.141-1.74,5.766-1.732,8.146c-0.135,4.527-1.061,6.793-1.698,13.289c0.384-0.848,0.384-0.848,0.747-1.854
		c0.679-2.105,1.505-11.34,2.357-13.98c0.598,3.482,3.808,7.725,4.385,18.045c0.592-4.744-0.251-8.199-1.082-10.346
		c-2.705-8.352-2.304-8.516-2.12-9.916c1.374-10.439,3.025-16.271,6.106-24.926c0.394-1.109,2.236-6.656,3.099-7.055
		c4.619-2.135,9.099-2.393,13.818-4.314c0.204,0.395-0.285,0.869-1.103,2.697c-0.58,0.959-1.009,2.066-1.765,2.859
		c-6.489,6.82-9.251,14.938-8.466,24.252c0.552,6.537,1.78,13.057-0.886,19.475c-0.634,1.527-0.396,3.396-0.913,4.994
		c-1.297,4.002-1.818,8.85-4.453,11.678c-3.712,3.984-4.317,8.068-4.255,12.789c0.358,0.193,0.417-5.461,2.04-8.357
		c1.062-1.9,3.168-3.939,4.188-5.766c0.577,2.078-0.79,13.482-0.145,15.805c0.279-0.049,0.182-1.879,0.363-3.729
		c0.435-3.459,0.757-8.533,1.251-12.457c1.251,1.33,2.235,4.24,3.209,5.277c0.676,0.828,1.443,2.902,1.875,2.695
		c-0.878-2.355-2.684-5.039-3.615-7.373c-0.303-0.758-0.867-3.844-0.762-4.461c0.83-4.875,2.431-7.053,3.329-11.918
		c0.796-4.311,1.653-8.627,2.107-12.98c0.19-1.818-0.276-3.619-0.672-5.797c2.554,0.943,4.197,1.668,6.229,2.273
		c3.465,1.029,7.572,2.199,7.719,6.174c0.1,2.693,0.85,4.938,1.197,7.615c0.42,3.229-0.057,6.514,0.652,9.684
		c0.645,2.873,0.413,6.703,1.303,9.523c0.527-2.174,0.434-4.42,0.286-6.662c-0.304-4.6-0.692-9.193-0.944-13.795
		c-0.527-9.604-1.111-14.188-11.728-16.055c-1.58-0.275-3.226-1.145-4.583-1.625c0.582-10.971,5.585-16.926,14.642-23.76
		c1.615-1.219,3.094-3.756,3.132-5.713c0.11-5.674,4.393-7.912,8.17-11.082c1.233,10.158-0.396,6.551,0.275,16.629
		c0.029,0.434,2.349,14.555,2.36,14.99c0.267,9.373,0.554,18.746,0.76,28.121c0.017,0.789-0.368,1.684-0.81,2.375
		c-4.684,7.379-7.646,15.445-9.53,23.922c-0.601,2.707-0.809,5.5-1.196,8.256c0.228,0.033,0.457-1.664,0.855-3.041
		c0.731-2.254,2.949-9.932,3.681-12.186c0.251,0.055-0.148,6.824,0.019,9.139c1.504,6.432,2.086,12.461,3.442,18.264
		c0.419-6.949-0.614-8.418-1.196-14.598c-0.463-4.912-0.959-15.025,1.18-19.713c1.082,2.078,0.98,3.773,2.122,7.398
		c0.798,2.666,0.616,3.645,0.815,5.494c0-1.697,0.22-4.531-0.162-6.486c-0.921-4.703-1.631-7.814,1.411-11.703
		c2.603-3.322,3.317-7.516,2.997-11.986c-0.424-5.936-0.105-11.926-0.105-17.893c1.471,4.127,2.164,10.926,2.715,15.098
		c1.01,7.656,1.539,12.498-0.93,20.273c-1.683,5.295-2.082,11.381-1.463,16.938c0.795,6.238,2.998,5.756,2.609,8.414
		c-0.943,6.455,0.623,8.676,1.758,14.27c0.326-3.658-1.021-7.602-0.598-12.383c1.124,2.609,8.341,1.959,7.345,15.494
		c0.996-5.559,1.489-9.191-2.467-12.99c-0.981-0.943-3.726-3.424-3.935-4.535c-1.109-5.855-2.793-4.748-2.901-10.662
		c-0.122-6.689,4.846-19.939,4.642-26.617c-0.391-12.752-2.636-23.52-3.418-36.262c-0.232-3.787-0.837-8.439-0.832-12.238
		c0.008-6.553,2.186-13.857,1.929-20.398c-0.165-4.246-3.509-7.73-3.429-11.949c0.164-8.711,5.309-11.996,8.071-20.107
		c1.544,1.734,3.303,3.158,4.061,4.641c3.337,6.531,8.001,10.354,11.263,16.922c0.555,1.117,1.429,2.092,2.232,3.066
		c1.639,1.99,3.514,3.807,4.961,5.922c3.572,5.213,0.451,4.371-3.552,7.707c-1.938,1.613-3.847,2.562-5.984,3.836
		c-2.219,1.32-5.112,3.047-5.737,5.174c-1.172,3.992-0.971,8.398-1.241,12.639c-0.123,1.936-0.032,3.887,0.005,5.832
		c0.049,2.555-0.236,5.193,0.291,7.65c1.383,6.455,6.086,12.312,3.141,19.57c3.383-4.234,3.488-9.609,1.926-13.529
		c-2.678-6.719-2.258-13.002-0.754-20.984c0.982,2.383,0.851,2.223,2.518,4.725c2.203,3.109,1.758,1.959,5.837,6.746
		c3.155,3.697,1.786,5.738,2.212,10.551c-0.072,3.012-0.037,4.994,0.258,4.994c0.336-5.654,3.568-11.793-1.111-16.709
		c-3.698-5.367-3.098-4.604-4.283-6.842c-0.656-1.238-0.982-2.908-1.914-4.025c-2.958-3.543-2.671-8.23,1.031-10.816
		c4.194-2.93,8.154-2.451,13.496-6.219c1.09,7.959,3.086,15.369,2.846,22.707c-0.262,7.973-2.645,15.873-4.025,23.818
		c-0.879,5.049-2.898,9.053-7.955,11.303c-2.271,1.01-4.098,3.066-6.044,4.746c-3.066,2.643-1.391,8.375-0.804,8.941
		c-0.625-6.701,1.578-8.729,7.809-10.762c-1.938,8.939-1.027,17.234,4.264,24.98c1.123,1.648,0.881,1.949,0.639,4.266
		c-0.219,2.078-1.424,6.756-1.951,8.812c-0.799,3.119,0.186,4.824,3.086,6.064c-5.34-3.43,0.463-12.164,0.463-15.324
		c2.195,2.443,1.838,2.299,3.699,5.875c2.088,3.428,1.846,3.688,2.088,3.428c-1.906-6.873-10.348-20.41-9.559-26.057
		c7.338,3.291,15.666,3.191,16.854,18.23c1.199-6.504-0.197-10.904-4.318-14.062c-2.797-2.143-5.793-4.238-9.027-5.551
		c-4.738-1.924-4.768-10.285-2.275-13.701c2.17-2.977,3.914-6.301,5.543-9.621c0.945-1.926,1.045-3.287,1.982-6.463
		c0.646,5.902,1.512,7.135,2.012,11.695c0.096-1.891,0.027-1.754,0.109-6.311c-0.275-4.189-0.18-3.1,0.162-5.602
		c10.279,4.553,14.701,13.633,14.041,24.092c-0.082,1.326-1.191,2.557-1.562,3.902c-0.461,1.666-0.648,3.408-0.953,5.117
		c0.4,0.1,0.822-3.248,1.73-5.17c0.652-1.27,1.078-1.947,1.959-2.648c0.57,0.877,0.725,0.801,1.123,3.557
		c0.506,2.719,1.123,4.857,1.316,4.766c-0.328-2.697-0.338-7.922-2.477-9.697c-0.408-1.604,0.188-3.641,0.545-3.848
		c1.174,1.465,1.016,1.869,3.934,3.445c1.033,0.943,2.406,5.354,2.805,5.139c-0.85-2.031-1.189-5.227-2.648-5.865
		c-3.582-1.566-2.496-3.807-4.381-6.199c-0.686-0.871-1.143-4.502-1.369-5.604c-1.367-6.609-4.646-7.875-9.756-11.105
		c-2.074-1.312-4.383-3.664-4.785-5.871c-0.594-3.24,1.366-5.434,1.407-10.012c0.067-7.487,3.71-14.045,1.79-21.383
		c-1.205-4.609-2.082-9.52-4.379-13.574c-2.99-5.279-7.508-9.668-10.871-14.77c-3.282-4.977-6.785-12.016-9.715-17.225
		c0.453-0.301,1.496,0.271,2.207,0.748c5.181,3.512,5.57,5.182,14.383,11.109c2.281,2.75,2.773,2.828,6.615,10.121
		c2.037,3.863,7.139,5.125,10.748,7.641c4.934,3.441,5.369,5.615,2.254,10.85c-1.234,2.074-2.529,4.133-3.551,6.316
		c-2.182,4.674-2.098,9.449-0.678,14.467c-0.467-15.814,6.557-16.404,9.396-24.807c3.451,3.094,7.031,5.898,5.92,11.023
		c-0.404,1.863-0.678,3.666-0.834,5.432c-2.305,2.193-6.555,10.98-4.416,14.332c1.037-8.08,2.686-8.729,4.268-10.6
		c0.027,4.092,0.682,8.088,1.854,12.34c-6.711,4.264-6.229,6.092-7.777,20.01c0.928-2.137,1.549-13.863,4.686-15.693
		c0.834,2.373-0.066,4.941,0.617,6.889c0.279,2.066,0.445,5.73,0.852,5.697c0-2.896,0.246-2.686-0.166-5.521
		c-0.426-2.934-0.812-7.211,0.547-8.408c1.197-1.088,0.961-1.039,1.486-1.016c0,12.932,3.918,16.039,3.918,29.701
		c1.023-15.334-1.904-15.494-2.611-29.863c3.189,3.486,8.922-0.742,11.678,9.682c0.42-8.227-5.52-8.592-12.021-11.695
		c-0.963-6.58-2.555-9.723-0.723-15.1c1.809-5.312,3.246-10.861-0.877-15.418c-4.518-4.996-9.428-9.867-14.941-13.674
		c-6.77-4.676-4.762-9.68-12.279-16.557c-2.121-1.705-2.9-2.359-4.125-3.057c-3.156-1.795-2.029-0.994-3.156-1.795
		c-1.811-1.262-3.406-2.008-3.318-2.012c11.979-0.6,21.75,6.449,31.287,12.26c2.658,1.617,4.256,4.754,1.33,8.42
		c-1.818,2.281-2.051,5.389,0.768,7.191c-2.469-5.336,2.654-8.592,3.84-10.92c1.139,2.678,2.094,9.674,3.191,11.389
		c2.223,3.473,3.99,6.064,6.223,9.531c2.832,4.393,4.938,9.256,3.959,14.506c-0.467,2.51-1.582,4.293-2.855,6.713
		c-0.516,0.98-1.65,2.631-1.865,4.273c2.049-1.143,3.924-7.055,5.309-7.826c0.156,1.326-0.354,7.67-0.15,9.422
		c0.766-2.027,0.793-7.557,1.457-9.312c2.268,1.822,6.963,3.025,7.408,9.643c1.045-4.02-0.975-6.438-3.58-7.822
		c-2.957-1.572-3.139-3.748-2.934-6.461c0.422-5.613-0.227-10.973-3.906-15.572c-2.137-2.672-4.496-3.322-6.369-8.045
		c-1.436-6.215-1.172-6.012-1.051-9.418c5.992,3.459,11.65,7.422,17.863,10.105c5.41,2.338,9.111,2.402,6.385,9.074
		c-0.131,0.318,0.402,2.918,0.459,3.34c0.479,3.57,1.219,7.137,1.346,10.725c0.221,6.25,2.826,11.979,2.885,18.236
		c-0.197,4.205,4.264,6.273,8.125,7.578c-2.664-1.469-7.484-5.012-6.939-7.73c2.375-0.242,5.096,0.783,6.816,1.178
		c1.48,0.338,3.037,0.35,4.561,0.504c0.357-0.498-11.736-2.762-11.377-3.26c-1.105-6.873-1.035-8.822-2.449-21.332
		c3.48,8.73,13.66,13.102,19.867,16.494c1.49,0.688,2.605,1.555,2.889,1.32c-1.34-1.52-6.037-3.73-7.65-4.859
		c-3.598-2.518-6.121-4.891-9.322-7.797c-2.705-2.455-6.451-6.582-6.471-10.312c-0.02-3.594-0.02-3.594,0.73-3.912
		c1.959-0.83,1.699-0.426,7.066,0.879c4.266,1.113,5.779,2.246,7.85,4.391c1.93,1.994,3.246,2.318,5.174,4.207
		c-2.127-3.428-2.816-3.229-4.34-4.607c-2.789-2.961-5.693-5.584-11.676-6.455c0.346-0.285,9.697-2.215,15.111,0.627
		c2.367,1.277,4.135-0.898,6.9,7.197c-1.764-7.908-2.738-6.41-11.518-9.789c-4.338-1.668-11.535,1.111-14.482,1.531
		c1.305-5.295,3.189-11.424-10.301-15.014c-11.283-6.123-14.859-7.158-23.715-16.537c-2.766-2.928-15.045-5.811-18.277-8.375
		c1.018,0.293,9.268,2.354,10.453,2.547c3.906,0.639,7.824,1.211,11.744,1.752c2.393,0.334,5.645-1.721,7.721-0.746
		c3.871,1.82-1.256,0.143,7.652,4.314c1.02,0.479,2.609,1.053,7.18,2.031c5.447,1.27,2.23,0.402,6.164,1.197
		c3.686,0.742,4.814-0.139,6.854,3.59c1.607,2.938,4.238,7.361,6.168,10.1c0.145-1.377-1.607-2.639-1.424-4.41
		c3.65-2.969,6.887-1.555,16.469,4.824c-6.459-4.389-11.029-9.611-17.447-5.912c-0.621-0.939-3.066-5.215-3.426-5.766
		c2.764-1.66,6.152-1.236,13.076-2.873c-12.969-0.717-10.684,2.238-16.85,0.137c-12.574-3.406-16.855-2.029-21.164-7.627
		c11.367-0.814,33.02,0.68,44.289-0.295c2.723-0.234,9.314-1.973,12.039-2.393c1.881-0.291,3.068,0.25,5.924,1.826
		c1.889,1.043,2.771,2.959,4.76,3.877c0.967,0.381,1.186,0.564,1.719,0.643c-2-1.479-4.824-5.295-9.139-7.072
		c15.203-3.062,2.881-6.205,18.312-5.293c-4.613-0.383-9.01-0.607-13.52-0.584c-22.076,0.119-16.055,0.154-38.131,0.02
		c-12.131-0.074-24.258-0.531-36.387-0.848c-1.57-0.041-3.141-0.24-4.705-0.432c-8.203-1-16.34-0.873-24.568-1.564
		c-5.35-0.451-10.889-0.924-16.176-1.65c-4.021-0.553-9.997,1.098-11.088-5.32c-1.553-9.121-3.475-18.316-3.597-27.5
		c-0.14-10.54,1.331-21.124,2.531-31.64c0.259-2.271,1.825-5.122,3.685-6.357c1.527-1.015,3.078-1.958,4.65-2.847
		c1.57,3.037,4.836,3.422,4.836,3.422h4.641c0,0,9.83-3.059,9.428-5.802c-0.275-1.89-0.582-2.686-1.727-4.599
		c2.588-0.679,5.229-1.226,7.93-1.631c0.121,1.172,0.348,2.439,0.602,3.682c-1.191,0.2-2.307,0.858-3.289,2.282
		c-2.518,3.643-1.479,7.604,2.287,10.369c1.25,0.919,2.383,2.08,3.332,3.313c2.953,3.848,6.727,2.932,9.754-0.612
		c2.393-2.802,5.924-4.633,9.246-6.635c-0.297,1.396-1.188,2.746-2.232,2.813c-2.07,0.133-3.684,8.562,1.529,8.435
		c2.635-0.064,3.734-3.073,4.178-6.033c0.814,1.021,2.045,1.883,3.725,2.616c10.219,4.457,10.309-3.34,11.094-10.914
		c3.684,4.906,7.043,5.867,10.275,3.947c2.006,0.798,4.662,0.093,5.551-0.189c0.01,0.015,0.023,0.035,0.035,0.05
		c1.402-0.588,2.291-1.233,2.818-1.918c2.191-1.876,1.984-3.281,0.09-4.143c-0.498-1.187-1.215-2.401-1.639-3.586
		c1.285-0.633,2.5-1.232,3.979-1.961c0.914,2.113,1.393,4.154,2.574,5.635c0.867,1.089,2.629,1.836,4.051,1.94
		c0.59,0.043,1.992-2.044,1.893-3.049c-0.377-3.782-1.021-7.567-1.945-11.255c-0.799-3.179-1.631-6.042,2.732-6.769
		c0.119-1.091,0.227-2.094,0.346-3.176c2.922-0.193,4.191,3.188,4.191,3.188c0.773,10.282-6.691,6.721-5.188,8.326
		c1.506,1.606,6.973,2.509,6.973,2.509l0.652,1.604c2.207,3.21-4.014,4.447-4.014,4.447s-3.41,2.174,7.193,3.714
		c10.604,1.541,6.918-9.307,6.918-9.307c-8.463-6.863-2.771-9.47-2.771-9.47c5.771-3.083,1.41-7.321-1.711-9.579
		c1.012-3.067,1.018-6.649,1.598-9.892c2.977,7.751,3.477,7.925,12.637,4.15c0.553,1.418,1.18,2.812,1.645,4.259
		c1.861,5.792,3.604,6.619,9.494,4.418c4.121-1.54,5.111-5.069,2.102-8.316c-1.311-1.414-3.174-2.315-5.189-3.733
		c6.584-3.408,8.031-6.334,4.996-8.573c-3.846-2.838-4.098-6.469-4.127-10.619c-0.008-1.184-1.4-3.018-2.539-3.391
		c-2.172-0.713-3.352,0.525-3.467,3.033c-0.07,1.54-1.02,3.04-1.574,4.558c-0.396-0.059-0.793-0.117-1.191-0.175
		c0.205-5.056-0.396-7.15-3.756-13.413c-1.528-2.849-6.787,1.487-8.342-0.538c-1.521-1.981,0.924-2.299,2.055-3.555
		c0.564-0.376,1.137-0.74,1.732-1.056c2.783-1.474,3.066-2.677,1.203-4.658c-0.025-1.171-0.857-1.697-1.834-1.911
		c-1.35-1.517-2.6-3.194-4.004-4.903c4.758-2.319,4.92-6.787,4.92-6.787c1.164-1.232-0.02-3.355-2.756-3.824
		c0.039-1.038-0.143-2.272-0.504-3.811c-0.094-0.4-0.355-0.781-0.605-1.122c-1.127-1.539-2.619-4.504-3.359-4.329
		c-2.703,0.638-6.086,1.366-5.471,5.702c0.18,1.27-0.123,3.201-0.971,3.91c-2.182,1.824-4.808,6.186-7.234,4.65
		c-0.146-0.092-0.404-2.447-1.408-4.432c-0.777-1.536-2.08-3.537-3.496-3.872c-0.51-0.121-1.098-0.028-1.719,0.197
		c-2.936-2.803-10.781-0.004-12.068-2.788c-0.733-1.585,1.799-3.918,2.939-2.932c1.537,1.329,9.496-4.027,9.496-4.027
		c7.225,0.578,5.953-2.173,5.953-2.173c-0.236-0.509-0.559-0.866-0.852-1.305l-0.227-0.576c-3.445-5.002-10.441-4.589-13.492-4.363
		c-0.9,0.067-1.545-0.321-1.547-0.321c-0.967-1.375-2.139-2.2-3.328-2.693c0.01-0.038,0.02-0.074,0.031-0.113
		c2.498,0.767,4.992,1.533,7.832,2.404c0.312-4.254-3.773-4.365-6.678-6.447c5.184-0.684,8.529,0.951,11.545,3.907
		c2.125,2.083,5.014,2.963,7.322,0.864c1.291-1.175,1.848-3.709,1.85-5.633c0.004-3.562-2.404-4.845-5.781-4.652
		c-1.59,0.091-3.332,0.414-4.752-0.089c-2.217-0.786-4.549-1.867-6.111-3.509c-0.49-0.515-0.416-2.017,1.959-2.171
		c2.547-0.166,1.575,2.867,3.801,2.383c6.344-1.378-0.084-7.552-5.484-8.883c-2.393-0.59-3.447-1.183-6.934-2.77
		c-2.383-1.084,1.492-4.709-0.758-5.772c-3.845-1.816-4.385,1.519-4.875,4.25c-2.361,0.256-2.77,1.669-4.773,1.377
		c-3.703-0.54-6.125-0.018-7.637,2.273c-0.135-0.132-0.279-0.254-0.42-0.38c1.033-2.749-4.105-2.542-4.105-2.542
		c-0.973-0.66-2.172-1.011-3.428-1.173c-0.064-3.081-2.299-5.701-6.131-6.547c-1.021-0.225-1.932-0.938-2.842-1.4
		c1.994-6.289,0.445-8.547-5.742-7.474c0.83-1.449,1.779-2.403,1.893-3.449c0.258-2.364,1.09-5.773-0.1-6.945
		c-2.123-2.092-5.484-3.088-8.479-4.089c-2.877-0.96-5.926-1.667-8.936-1.848c-1.547-0.093-3.41,0.908-4.713,1.942
		c-1.828,1.453-5.072,5.781-6.203,5.958c-2.41,0.378-4.164-0.579-4.246-2.896c-0.045-1.291,1.073-2.849,2.119-3.925
		c1.555-1.601,0.35-3.951-0.555-4.819c-1.027-0.986-4.373,0.137-6.406,1.172c-0.02-0.528-0.068-1.166-0.285-1.647
		c-0.709-1.574-2.319-3.061-3.782-3.447c-3.47-0.917-5.353,0.882-6.788,3.269c-1.033-1.185-2.393-0.425-3.489,0.694
		c-1.951-1.514-3.972-2.531-6.506-0.429c-0.216,0.179-0.411,0.403-0.599,0.645c-0.117-0.202-0.234-0.411-0.349-0.634
		c-2.007-3.913-5.562-2.665-5.837-0.789c-0.094,0.635,0.018,2.193,0.018,2.193l-3.711,0.101c0,0-3.357-0.28-4.043-0.338
		c-0.449-0.038-1.434,0.605-1.457,1.055c-0.047,0.884-0.208,1.756,0.22,2.74c1.392,3.203,2.263,4.762,1.167,5.973
		c-1.985,2.193-7.918,3.545-9.23,1.605c-0.606-0.895-0.701-3.009-2.408-5.919c-1.705-2.909-3.937-1.153-3.937-1.153
		s-3.639,2.058-4.411,2.286c-2.662,0.787-7.625-0.542-9.5,0.458c-1.703,0.908-5.025,6.034-2.517,7.739
		c0.759,0.516,2.079,1.583,1.434,2.294c-0.171,0.188-0.598,0.231-0.802,0.383c-1.049,0.786-0.135,2.144-0.327,3.434
		c-3.531-2.257-4.926,1.177-4.02,3.05c0.566,1.17,0.874,2.591,0.809,3.27c-1.101-1.103-2.687-2.062-3.073-3.375
		c-0.638-2.166-2.563-3.64-4.711-2.544c-1.771,0.903-3.083,1.708-1.75,4.667c0.779,1.728,3.986,0.727,3.708,2.083
		c-0.429,2.093-1.868,1.652-1.868,1.652c-1.961,0.082-1.997,2.532-1.396,4.885c-2.357-0.178-4.709-0.298-7.034-0.101
		c-2.625,0.223-4.162,2.134-4.201,4.282c-2.561-2.13-3.75-1.504-5.024-1.272c-1.156,0.21-4.699,0.117-4.699,0.117
		c-4.366,0.444-4.958-1.937-5.602-1.757c-1.952,0.544-6.333,2.982-7.44,3.513c-1.154,0.551-0.501,1.856-0.501,1.856
		c6.019,7.324,1.421,7.926-0.625,8.618c-7.14,2.415-8.375,0.944-11.034,1.806c-4.199,1.362-3.88,8.56,1.137,8.427
		c3.369-0.089,10.416,0.356,10.354,3.263c-0.03,1.405-2.526,1.36-3.781,1.335c-3.797-0.077-7.215,0.71-9.828,3.406
		c-1.183,1.221-2.576,3.348-2.096,4.789c1.785,5.348,5.535,1.973,9.354,3.797c1.866,0.891,5.262,1.558,5.014,3.463
		c-0.328,2.518-5.034,1.376-7.646,2.088c-1.293,0.352-2.32,2.048-2.578,3.004c-1.168,4.338-0.736,6.821-2.743,7.355
		c-2.006,0.535-3.812-1.671-5.149-4.48c-1.337-2.81-2.605-3.645-3.413-2.875c-0.44,0.419-0.036,2.122-0.597,2.357
		c-4.006,1.678-8.696-3.027-11.85-1.259c-0.701,0.393-1.362,1.378-1.492,2.178c-0.568,3.502,1.867,7.122,5.348,8.222
		c0.394,0.125,0.79,0.242,1.186,0.361c0.09,1.488-0.329,2.891-0.92,3.97c-2.384,0.201-5.897-0.702-7.107,1.39
		c-1.28,2.214,1.423,3.755,2.44,6.091c0.392,0.899-1.031,3.128-0.5,6.328c0.039,0.234,0.015,0.107,0.201,0.833
		c-2.825,1.232-3.932,2.863-3.203,4.581c-0.979,0.517-1.932,1.457-1.891,2.599c0.067,1.873,0.268,4.08-2.473,3.947
		c-2.742-0.133-2.274-3.947-4.949-4.214c-2.677-0.267-3.411,4.347-1.874,7.022c0.921,1.601,2.883,2.025,3.476,2.11
		c-0.223-0.017-0.665-0.038-1.401-0.038c-3.946,0-7.023-1.205-6.955,2.207c0.067,3.411,4.681,3.945,4.546,5.885
		c-0.132,1.939-4.096,2.011-5.015,5.552c-0.649,2.501-1.004,3.009,3.077,4.95c4.081,1.939,5.253,0.218,5.253,0.218
		c1.621-1.076,2.035-10.648,5.921-9.009c1.99,0.84,2.277,2.462,5.363,2.688c3.084,0.226,2.831-2.309,3.628-3.753
		c0.851-1.542,0.851-1.542,0.94-2.727c0.717,0.426,1.523,0.809,2.417,1.171c0.947,0.384,1.855,0.863,2.746,1.388
		c-1.369,3.317-1.483,5.803-0.965,7.659c-3.301-3.375-6.717,1.126-4.608,3.34c-4.484,1.015-4.89,7.205-1.318,10.334
		c3.344,2.93,2.869,4.922-0.195,7.537c-2.173,1.854-1.298,9.552,0.98,11.324c2.995,2.329,10.84,1.908,13.598-0.868
		c2.044-2.057-2.785-6.472-4.221-7.516c4.33-0.424,8.709-2.519,6.88-6.441c-1.54-3.303-4.183-1.623-2.993-5.778
		c0.441-1.539,2.004-2.756,3.439-4.618c1.352,3.114,2.825,5.436,4.851,6.74c-0.623,3.299,4.548,3.732,4.548,3.732
		c2.658,6.958,6.32,6.434,6.32,6.434s-0.602,1.017-0.949,1.153c-5.837,2.296-6.3,2.253-6.71,7.986
		c-0.181,2.527,3.584,4.512,5.914,5.128c5.998,1.587,10.14-2.438,13.721-6.435c1.168-1.303,2.254-2.176,3.477-2.176
		c1.318,3.899,0.355,5.211,2.095,9.207c1.797,4.129,7.432,0.335,8.752-0.018c0.519-0.139,1.213-0.311,1.789-0.722
		c1.371,0.71,1.52,2.363,1.941,6.287c0.136,1.27,1.486,3.249,2.483,3.386c1.383,0.189,3.625-0.641,4.326-1.766
		c1.642-2.638,1.558-5.572-0.587-8.228c-0.745-0.923-1.109-2.154-2.195-4.352c0.706,0.386,5.109,3.842,6.413,3.404
		c0.64-0.215,0.303-1.282,0.808-1.503c0.99-0.433,1.995,1.027,2.312,2.191c0.603,2.207,3.03,3.694,3.261,3.876
		c0.229,0.184,2.057,0.137,2.734-0.926c0.678-1.062,2.671-3.862,4.954-5.231c2.071-1.243,1.938-1.464,2.353-3.699
		c4.394,2.957,9.441,5.994,8.797,7.783c-1.093,3.034,2.003,8.085,5.277,8.493c4.399,0.548,4.053-2.958,4.077-6.041
		c4.85,0.739,8.77,0.14,9.58-5.853c1.611,4.645,3.154,8.738,4.428,12.912C242.703,240.548,243.342,242.867,243.186,245.047
		 M266.384,212.437c2.44-3.633,6.13-6.141,5.956-10.958c4.346-0.868,3.956,0.959,2.967,2.19c-1.697,2.111-0.586,3.882-0.406,4.094
		c-1.739,1.433-3.407,2.988-5.328,4.105C268.676,212.392,267.57,212.558,266.384,212.437z M237.359,220.112
		c-2.959-2.265-6.124-4.689-9.357-7.165c0.796-1.335,1.797-3.011,2.9-4.863C233.607,212.198,237.771,215.463,237.359,220.112
		 M249.957,216.874c-0.562-6.555-4.377-9.999-8.575-13.211c1.173-0.444,2.157-1.499,2.157-1.499s4.458,1.024,5.23,1.08
		c0.863,0.062,1.455,1.228,3.032,1.411c1.478,0.172,2.786,1.79,3.942,2.586C253.918,210.28,252.272,213.019,249.957,216.874z
		 M395.594,301.6c-1.82,0.18-0.381,0.562-3.736,1.162c-12.781,1.469-17.488,2.424-26.271,1.414
		c-6.723-0.771-11.254-0.383-17.969-1.182c-6.385-0.76-12.934,1.07-19.221-0.518c0.102-0.455-11.65-0.855-11.549-1.312
		c24.654,0,50.396-1.326,75.051-1.326c1.361-0.109,7.102-0.553,7.105-0.541C397.199,300.566,397.412,301.42,395.594,301.6z"/>
</g>
</svg>
