<?xml version="1.0" standalone="no"?>
<!DOCTYPE svg PUBLIC "-//W3C//DTD SVG 20010904//EN"
 "http://www.w3.org/TR/2001/REC-SVG-20010904/DTD/svg10.dtd">
<svg version="1.0" xmlns="http://www.w3.org/2000/svg"
 width="500.000000pt" height="500.000000pt" viewBox="0 0 500.000000 500.000000"
 preserveAspectRatio="xMidYMid meet">
<metadata>
Created by potrace 1.11, written by Peter Selinger 2001-2013
</metadata>
<g transform="translate(0.000000,500.000000) scale(0.100000,-0.100000)"
fill="#000000" stroke="none">
<path d="M2619 4921 c-29 -22 -55 -28 -86 -17 -12 4 -31 2 -42 -3 -14 -8 -20
-7 -25 4 -8 23 -57 19 -63 -5 -4 -16 -14 -20 -49 -20 -53 0 -61 -13 -44 -66
15 -44 2 -62 -53 -71 -36 -5 -37 -5 -57 41 -11 26 -26 49 -34 52 -7 3 -31 -4
-52 -15 -25 -14 -57 -21 -91 -21 -42 0 -55 -4 -67 -22 -18 -25 -21 -59 -6 -74
15 -15 0 -54 -21 -54 -13 0 -19 -9 -21 -37 l-3 -38 -18 33 c-19 35 -55 43 -77
17 -16 -19 -3 -55 21 -55 25 0 25 -20 -1 -27 -13 -3 -20 -14 -20 -29 0 -22 -4
-24 -45 -24 -30 0 -51 -6 -63 -18 -21 -21 -132 -29 -173 -12 -22 10 -34 8 -68
-9 -44 -23 -49 -35 -26 -65 37 -49 0 -79 -110 -92 -64 -8 -87 -33 -66 -73 12
-22 26 -26 100 -35 82 -9 79 -45 -4 -46 -50 0 -102 -31 -111 -66 -10 -41 7
-58 63 -65 97 -12 128 -52 46 -62 -53 -6 -68 -20 -77 -76 -10 -65 -40 -57 -93
25 -12 19 -13 19 -28 -1 -14 -17 -19 -18 -60 -7 -60 16 -82 15 -89 -4 -14 -36
-5 -64 29 -91 44 -35 47 -63 6 -63 -60 0 -77 -24 -46 -66 16 -21 11 -88 -9
-114 -22 -30 -36 -60 -36 -79 0 -10 -7 -24 -15 -31 -12 -10 -19 -7 -38 14 -29
31 -53 33 -62 6 -7 -23 3 -62 19 -72 6 -4 -6 -8 -26 -8 -32 0 -38 -3 -38 -22
0 -12 12 -34 26 -49 l25 -27 -30 -21 c-42 -30 -43 -74 -2 -91 48 -19 74 -10
86 31 5 20 16 44 24 53 12 15 16 15 37 1 38 -25 71 -19 89 16 13 24 20 29 38
23 30 -9 28 -6 21 -51 -5 -33 -10 -40 -24 -36 -17 5 -46 -28 -35 -39 3 -3 -4
-13 -15 -23 -27 -25 -25 -67 5 -103 30 -36 32 -63 5 -87 -22 -20 -26 -67 -10
-109 12 -31 69 -49 121 -37 67 15 74 31 35 78 l-25 29 34 13 c44 15 54 45 26
75 -26 28 -27 58 -2 80 18 17 20 16 37 -13 10 -17 22 -31 26 -31 4 0 8 -7 8
-15 0 -8 13 -21 28 -29 15 -8 34 -25 41 -39 7 -14 23 -29 35 -34 20 -9 19 -11
-14 -28 -43 -22 -50 -31 -50 -73 0 -26 6 -36 33 -52 59 -36 103 -26 174 42 43
42 63 43 63 4 0 -13 5 -38 11 -55 11 -31 14 -32 48 -28 20 3 48 8 62 12 25 7
27 4 35 -42 8 -43 12 -48 39 -51 55 -7 71 49 33 114 l-21 36 32 -17 c25 -13
36 -14 47 -5 11 10 15 8 20 -6 10 -27 35 -54 51 -54 7 0 35 22 62 50 27 27 52
50 56 50 4 0 25 -14 46 -31 29 -22 39 -38 39 -58 0 -33 31 -77 61 -86 26 -9
49 11 49 41 0 21 5 24 35 24 26 0 43 7 60 25 l23 26 27 -82 c26 -78 27 -89 20
-183 -5 -56 -9 -184 -11 -285 -2 -168 -4 -185 -22 -203 -32 -32 -189 -47 -548
-52 -665 -9 -1098 -20 -1074 -26 14 -4 183 -10 375 -14 193 -4 365 -10 384
-13 33 -6 33 -7 15 -21 -10 -8 -40 -24 -67 -37 -46 -22 -50 -22 -115 -8 -93
20 -162 13 -206 -20 -19 -15 -39 -27 -45 -27 -5 0 -22 15 -36 33 -25 29 -26
25 -9 -18 7 -18 -27 -21 -58 -4 -11 6 -22 8 -25 5 -11 -10 65 -36 106 -36 23
0 59 10 87 25 29 16 63 25 90 25 46 0 54 -9 28 -31 -24 -19 -44 -65 -43 -96 0
-27 1 -26 19 12 9 22 31 53 48 69 28 26 36 28 80 23 41 -5 60 -1 111 23 68 32
128 42 386 60 147 11 345 10 345 0 0 -3 -18 -24 -40 -45 l-41 -40 -117 -3
c-87 -3 -132 0 -180 13 -37 11 -78 15 -100 11 -40 -6 -179 -96 -227 -146 l-30
-32 78 41 c43 23 83 39 88 36 18 -12 10 -91 -12 -119 -25 -31 -8 -35 21 -4 15
17 20 35 20 80 0 46 4 62 21 79 24 24 24 24 244 -4 l100 -13 -81 -27 c-83 -28
-157 -69 -184 -102 -8 -10 -26 -38 -40 -64 -36 -65 -59 -71 -167 -38 -48 15
-101 27 -118 27 -66 -1 -152 -80 -183 -169 -16 -45 -5 -38 18 13 12 23 34 55
49 71 l29 27 7 -65 c6 -58 4 -72 -19 -123 -25 -54 -25 -56 -5 -38 38 35 50 70
48 149 -2 90 7 105 67 105 45 0 184 -46 184 -61 0 -5 -26 -16 -57 -25 -113
-32 -148 -79 -178 -238 -18 -99 -14 -123 8 -49 41 136 84 211 137 238 45 23
51 18 25 -21 -26 -39 -31 -61 -39 -170 -2 -39 -12 -88 -20 -108 -8 -20 -11
-34 -6 -31 22 14 43 73 52 144 11 95 25 112 62 79 15 -13 31 -39 36 -58 8 -34
8 -34 9 13 1 42 -3 52 -29 75 l-29 26 75 70 c42 38 89 93 106 123 34 61 59 77
143 92 93 17 91 18 105 -51 10 -55 10 -63 -7 -86 -10 -13 -50 -42 -88 -64 -90
-50 -101 -62 -130 -134 -20 -50 -33 -66 -87 -104 -75 -54 -108 -110 -108 -181
0 -29 -12 -78 -29 -124 -18 -46 -24 -72 -16 -65 17 14 75 128 75 147 0 17 10
16 37 -5 33 -26 52 -70 47 -111 -3 -28 -2 -32 5 -16 25 52 4 127 -43 159 -30
19 -33 44 -11 86 13 26 78 80 96 80 4 0 10 -38 14 -85 11 -136 23 -156 24 -40
l1 100 21 -43 c27 -54 35 -47 19 17 -26 108 34 233 118 246 21 4 57 13 81 22
36 13 47 23 64 62 18 41 19 52 9 101 -24 116 -11 152 76 198 59 32 72 46 72
82 0 26 35 56 86 76 57 21 76 14 64 -23 -5 -15 -21 -68 -36 -118 -15 -49 -37
-108 -50 -131 -18 -30 -24 -56 -24 -97 0 -70 -9 -92 -57 -143 -21 -23 -46 -54
-57 -69 -17 -25 -58 -47 -181 -99 -22 -9 -58 -33 -80 -52 l-40 -36 38 22 c21
12 40 20 42 18 2 -2 -7 -39 -20 -83 -14 -44 -29 -104 -35 -134 -6 -32 -27 -83
-49 -120 -42 -70 -81 -155 -80 -174 0 -7 9 9 19 34 17 44 78 149 85 149 2 0 1
-19 -1 -42 -2 -24 0 -34 3 -23 5 15 12 2 29 -50 13 -38 23 -60 23 -49 1 12 -6
41 -14 64 -18 50 -19 99 -4 172 15 77 78 265 92 276 16 14 138 45 145 37 3 -3
-4 -18 -16 -33 -38 -47 -82 -126 -93 -167 -7 -25 -9 -81 -5 -152 5 -98 3 -124
-19 -220 -18 -75 -37 -126 -61 -166 -19 -31 -37 -74 -39 -95 l-5 -37 10 40 c6
22 21 54 35 70 l24 30 2 -65 c2 -52 3 -56 6 -20 2 25 6 56 9 70 6 24 6 24 25
-12 11 -21 22 -38 24 -38 3 0 -4 19 -16 41 -24 49 -23 85 10 204 12 44 23 113
24 153 2 60 5 71 17 66 8 -3 39 -15 68 -26 28 -11 56 -27 61 -37 5 -9 15 -64
21 -121 22 -196 30 -226 24 -95 -10 247 -17 265 -125 300 -64 20 -64 20 -61
55 6 63 49 136 118 198 52 45 67 66 76 101 11 42 69 121 89 121 5 0 9 -44 9
-97 0 -54 6 -134 14 -179 8 -44 15 -155 17 -245 l2 -164 -42 -82 c-39 -77 -82
-212 -80 -257 0 -12 10 8 22 44 l21 65 7 -75 c9 -97 32 -220 37 -197 2 9 -1
48 -7 87 -13 79 -13 226 -2 255 7 17 10 12 20 -25 19 -70 21 -70 15 0 -5 59
-3 70 25 124 30 56 31 63 31 179 0 66 2 118 5 116 2 -3 12 -61 21 -130 15
-122 15 -128 -5 -213 -25 -104 -28 -228 -6 -270 8 -15 15 -54 16 -85 1 -31 5
-67 10 -81 6 -17 7 -7 3 33 -3 31 -2 57 3 57 18 -1 53 -37 67 -70 15 -34 15
-34 16 -8 0 18 -12 42 -34 66 -38 42 -76 127 -76 170 0 15 11 74 25 132 29
123 31 215 10 385 -24 193 -30 352 -15 469 12 101 12 107 -10 166 -29 78 -24
118 30 215 34 62 44 74 56 64 13 -11 39 -47 136 -191 23 -35 59 -83 80 -107
21 -24 38 -52 38 -61 0 -11 -32 -39 -83 -73 -46 -30 -89 -63 -97 -72 -11 -14
-16 -54 -18 -160 -4 -131 -2 -148 23 -226 16 -52 24 -95 21 -114 l-6 -30 15
25 c19 32 19 83 0 144 -15 50 -20 143 -9 184 l7 23 15 -23 c9 -13 36 -47 59
-76 41 -51 43 -56 44 -125 1 -65 2 -68 10 -32 15 73 10 110 -18 151 -45 65
-93 164 -93 190 0 29 39 69 77 79 15 3 45 15 67 26 22 10 40 18 42 16 5 -5 34
-208 34 -241 0 -43 -46 -289 -62 -329 -10 -27 -44 -59 -111 -107 -39 -27 -57
-58 -56 -93 1 -19 2 -18 14 8 14 32 40 58 65 67 13 5 16 -7 16 -82 0 -80 3
-93 34 -154 l33 -67 -16 -77 c-17 -75 -17 -77 3 -94 11 -10 15 -13 10 -6 -13
16 -13 57 1 99 18 52 25 54 50 10 38 -68 32 -39 -11 54 -46 100 -73 185 -60
185 23 0 117 -50 139 -73 13 -15 30 -48 37 -74 l13 -48 0 47 c1 39 -4 53 -31
84 -17 20 -55 49 -84 65 -29 17 -57 36 -64 44 -21 25 -23 81 -4 117 10 18 34
66 54 105 l37 73 10 -53 10 -52 2 63 1 63 28 -15 c35 -19 85 -72 108 -116 19
-37 25 -142 11 -190 -7 -22 -6 -22 2 -4 17 39 29 36 39 -8 8 -35 10 -38 11
-15 1 16 -6 44 -15 63 -9 19 -14 37 -11 41 11 10 57 -27 67 -53 14 -35 21 -30
8 7 -6 17 -17 33 -25 36 -20 8 -51 73 -59 125 -7 45 -37 81 -118 141 -46 36
-54 56 -44 115 4 26 15 91 24 145 18 106 15 138 -16 241 -15 48 -39 91 -86
151 -59 78 -164 249 -164 267 0 16 13 7 105 -67 61 -48 102 -91 120 -122 38
-65 53 -82 100 -105 51 -26 95 -67 95 -89 0 -10 -18 -52 -40 -94 -34 -64 -40
-85 -39 -133 l0 -57 17 65 c10 38 35 93 62 132 42 65 45 67 63 50 54 -49 56
-114 5 -210 -15 -30 -28 -68 -28 -86 1 -28 2 -27 18 18 24 71 38 69 45 -6 5
-60 4 -64 -24 -94 -22 -23 -32 -44 -35 -75 l-4 -44 16 49 c9 30 19 45 23 37 5
-8 12 -2 21 16 13 28 14 27 21 -32 5 -33 17 -103 29 -155 l20 -95 -6 70 c-3
39 -10 88 -15 110 -4 22 -9 57 -9 78 0 36 1 37 28 31 43 -11 62 -23 83 -57
l21 -32 -7 30 c-9 41 -18 49 -80 76 l-54 24 -11 61 c-10 51 -9 70 4 114 27 92
22 132 -24 186 -23 25 -68 69 -102 98 -85 71 -95 82 -138 156 -34 59 -78 100
-149 140 -27 15 -8 19 44 9 57 -11 164 -59 247 -113 64 -41 80 -71 54 -108
-17 -24 -22 -73 -8 -82 5 -3 9 7 9 23 0 26 30 80 45 81 3 0 11 -24 18 -52 7
-30 33 -85 61 -128 89 -138 97 -184 50 -274 -33 -62 -27 -77 7 -18 l22 37 1
-50 c1 -31 3 -39 6 -20 2 17 6 40 9 53 l5 23 30 -22 c17 -12 37 -36 45 -53 12
-28 13 -28 14 -8 0 15 -15 37 -40 59 -39 35 -40 38 -40 102 0 77 -21 128 -74
185 -36 38 -56 88 -56 138 l0 28 68 -42 c37 -22 99 -56 138 -74 77 -35 84 -43
77 -89 -6 -41 41 -383 57 -415 4 -8 22 -24 41 -35 l34 -19 -38 36 c-46 44 -42
59 10 47 63 -14 71 -9 13 9 -61 20 -60 16 -74 164 l-7 68 48 -48 c27 -26 81
-64 121 -85 80 -42 97 -44 27 -2 -57 33 -171 139 -191 176 -8 16 -14 42 -14
59 0 25 4 30 23 30 45 0 123 -30 148 -56 13 -14 33 -30 44 -36 11 -6 2 8 -19
31 -22 22 -57 49 -78 60 -43 21 -40 31 10 31 60 0 142 -31 157 -60 8 -14 14
-20 15 -15 1 27 -35 55 -96 75 -58 20 -73 21 -122 11 -30 -6 -59 -11 -63 -11
-4 0 -5 18 -2 40 5 35 2 43 -29 74 -19 19 -48 38 -64 42 -55 13 -198 99 -263
159 -52 48 -83 67 -144 89 -43 16 -77 30 -75 31 2 2 30 -3 63 -11 33 -9 103
-16 156 -18 53 -1 103 -7 110 -13 33 -26 82 -43 175 -62 106 -22 102 -19 159
-111 31 -50 34 -52 32 -25 -2 26 2 30 25 33 15 2 40 -4 57 -13 17 -8 31 -13
31 -11 0 15 -67 37 -102 35 -35 -3 -42 0 -55 25 -8 15 -12 30 -9 34 3 3 36 11
73 18 l68 13 -81 -4 c-93 -6 -294 33 -327 63 -19 17 -19 17 9 23 16 3 119 4
229 1 158 -4 218 -1 286 12 124 23 113 25 209 -41 23 -15 22 -14 -4 15 -16 17
-38 34 -48 38 -22 7 -14 24 12 24 10 0 31 11 47 24 15 12 35 25 43 28 8 3
-201 8 -465 11 -433 5 -668 15 -983 45 -105 10 -115 19 -137 137 -26 139 -30
318 -11 479 17 145 27 173 72 203 24 15 27 15 54 0 40 -24 93 -21 150 8 53 27
55 30 41 68 -8 21 -6 26 12 31 67 18 86 -4 42 -48 -39 -39 -32 -69 26 -132 66
-68 93 -71 154 -15 45 41 85 67 85 54 0 -5 -9 -14 -20 -21 -21 -13 -27 -56
-11 -80 13 -22 54 -10 68 19 l13 27 37 -19 c75 -38 123 -10 123 70 0 38 13 46
35 21 14 -16 31 -20 77 -20 91 0 149 40 113 80 -20 22 -19 37 4 50 16 8 21 5
29 -19 11 -32 55 -66 72 -56 13 8 13 59 -2 146 -12 70 -12 72 10 87 12 8 22
21 22 28 0 21 18 17 34 -9 20 -29 8 -78 -22 -92 -32 -14 -27 -23 17 -36 58
-17 65 -50 15 -69 -33 -13 -30 -26 7 -39 47 -16 114 -14 130 5 21 26 14 83
-15 113 -33 34 -33 61 -1 89 31 27 31 43 1 79 -22 26 -24 35 -17 79 l7 49 18
-34 c19 -35 30 -37 103 -15 19 5 25 -1 44 -45 20 -47 24 -51 56 -51 91 0 123
64 58 118 l-36 29 25 17 c14 9 30 25 37 37 9 18 7 25 -14 48 -30 31 -47 71
-47 111 0 19 -7 33 -21 40 -27 15 -45 0 -53 -45 -9 -45 -26 -45 -26 0 0 19
-10 55 -22 80 -22 46 -23 46 -67 43 -57 -4 -64 15 -17 43 40 23 46 49 19 77
-57 59 -56 57 -29 87 29 31 35 82 11 91 -8 4 -15 13 -15 21 0 8 -10 33 -22 55
-19 34 -26 38 -48 33 -35 -9 -43 -19 -47 -61 -2 -36 -30 -76 -65 -95 -13 -7
-21 1 -40 39 -25 51 -28 52 -151 67 -37 5 -47 10 -45 23 2 9 17 19 33 22 17 4
46 15 65 25 19 10 50 21 69 24 19 3 36 11 38 17 7 22 -39 64 -82 75 -28 7 -47
18 -50 30 -4 11 -21 27 -38 36 -19 10 -27 18 -19 21 19 6 97 -25 117 -48 20
-22 67 -27 82 -7 21 25 24 69 8 93 -12 19 -24 24 -60 24 -49 0 -115 27 -115
47 0 7 9 13 20 13 11 0 20 -5 20 -11 0 -20 45 -5 48 17 4 28 -22 49 -103 82
-68 27 -70 28 -67 61 3 30 2 32 -25 29 -20 -2 -29 -9 -31 -25 -3 -23 -52 -46
-77 -37 -8 3 -28 -1 -44 -9 -23 -12 -31 -12 -35 -2 -2 7 -20 15 -40 19 -25 5
-39 15 -48 34 -7 15 -29 35 -48 44 -30 15 -36 24 -40 60 -5 40 -7 43 -38 46
-28 3 -31 5 -21 23 5 11 9 39 7 62 -3 37 -7 44 -38 59 -19 9 -64 24 -98 33
-75 20 -101 13 -153 -41 -55 -56 -100 -35 -65 30 24 45 13 69 -32 64 -27 -3
-40 1 -62 24 -33 33 -49 35 -81 9z m1070 -767 c2 -2 -7 -4 -22 -4 -14 0 -29 5
-32 10 -6 10 42 4 54 -6z m-877 -1099 c11 -11 -21 -80 -46 -102 -45 -38 -61
-29 -27 15 16 20 33 49 36 65 7 25 24 35 37 22z m-278 -35 c25 -10 46 -24 46
-30 0 -6 -12 -31 -26 -56 l-26 -44 -25 51 c-14 27 -36 57 -49 66 -53 34 7 45
80 13z m-177 -117 c14 -24 23 -46 20 -50 -3 -3 -25 9 -49 28 -24 18 -45 34
-47 36 -2 2 1 15 8 29 10 22 14 24 27 13 8 -7 27 -32 41 -56z m1841 -979 c-10
-10 -55 -21 -124 -31 -92 -13 -139 -14 -304 -4 -107 6 -231 11 -275 12 -44 0
-98 4 -120 8 -29 6 0 9 110 11 197 3 685 16 710 18 18 2 18 1 3 -14z"/>
<path d="M3273 895 c0 -22 2 -30 4 -17 2 12 2 30 0 40 -3 9 -5 -1 -4 -23z"/>
<path d="M3212 875 c0 -16 2 -22 5 -12 2 9 2 23 0 30 -3 6 -5 -1 -5 -18z"/>
<path d="M1932 690 c0 -19 2 -27 5 -17 2 9 2 25 0 35 -3 9 -5 1 -5 -18z"/>
<path d="M1922 625 c0 -16 2 -22 5 -12 2 9 2 23 0 30 -3 6 -5 -1 -5 -18z"/>
<path d="M2002 600 c0 -14 2 -19 5 -12 2 6 2 18 0 25 -3 6 -5 1 -5 -13z"/>
</g>
</svg>
