<?xml version='1.0' encoding='iso-8859-1'?>
<svg version="1.1" xmlns="http://www.w3.org/2000/svg" viewBox="0 0 511 511" xmlns:xlink="http://www.w3.org/1999/xlink" enable-background="new 0 0 511 511">
  <g>
    <path d="m327.5,432h-64.5v-128.5c0-4.142-3.358-7.5-7.5-7.5s-7.5,3.358-7.5,7.5v128.5h-64.5c-12.958,0-23.5,10.542-23.5,23.5v32c0,12.958 10.542,23.5 23.5,23.5h144c12.958,0 23.5-10.542 23.5-23.5v-32c0-12.958-10.542-23.5-23.5-23.5zm8.5,55.5c0,4.687-3.813,8.5-8.5,8.5h-144c-4.687,0-8.5-3.813-8.5-8.5v-32c0-4.687 3.813-8.5 8.5-8.5h144c4.687,0 8.5,3.813 8.5,8.5v32z"/>
    <path d="m215.5,464h-16c-4.142,0-7.5,3.358-7.5,7.5s3.358,7.5 7.5,7.5h16c4.142,0 7.5-3.358 7.5-7.5s-3.358-7.5-7.5-7.5z"/>
    <path d="m311.5,464h-64c-4.142,0-7.5,3.358-7.5,7.5s3.358,7.5 7.5,7.5h64c4.142,0 7.5-3.358 7.5-7.5s-3.358-7.5-7.5-7.5z"/>
    <path d="m487.5,352h-88c-3.749,0-7.292,0.887-10.439,2.454l-56.257-56.257c-2.928-2.929-7.677-2.929-10.606,0-2.929,2.929-2.929,7.677 0,10.606l56.257,56.258c-1.568,3.147-2.454,6.69-2.454,10.439v32c0,12.958 10.542,23.5 23.5,23.5h88c12.958,0 23.5-10.542 23.5-23.5v-32c-0.001-12.958-10.543-23.5-23.501-23.5zm8.5,55.5c0,4.687-3.813,8.5-8.5,8.5h-88c-4.687,0-8.5-3.813-8.5-8.5v-32c0-4.687 3.813-8.5 8.5-8.5h88c4.687,0 8.5,3.813 8.5,8.5v32z"/>
    <path d="m423.5,384h-8c-4.142,0-7.5,3.358-7.5,7.5s3.358,7.5 7.5,7.5h8c4.142,0 7.5-3.358 7.5-7.5s-3.358-7.5-7.5-7.5z"/>
    <path d="m471.5,384h-16c-4.142,0-7.5,3.358-7.5,7.5s3.358,7.5 7.5,7.5h16c4.142,0 7.5-3.358 7.5-7.5s-3.358-7.5-7.5-7.5z"/>
    <path d="m95.5,384h-8c-4.142,0-7.5,3.358-7.5,7.5s3.358,7.5 7.5,7.5h8c4.142,0 7.5-3.358 7.5-7.5s-3.358-7.5-7.5-7.5z"/>
    <path d="m55.5,384h-16c-4.142,0-7.5,3.358-7.5,7.5s3.358,7.5 7.5,7.5h16c4.142,0 7.5-3.358 7.5-7.5s-3.358-7.5-7.5-7.5z"/>
    <path d="m188.803,308.803c2.929-2.929 2.929-7.677 0-10.606-2.929-2.929-7.678-2.929-10.606,0l-56.258,56.257c-3.147-1.567-6.69-2.454-10.438-2.454h-88c-12.959,0-23.501,10.542-23.501,23.5v32c0,12.958 10.542,23.5 23.5,23.5h88c12.958,0 23.5-10.542 23.5-23.5v-32c0-3.749-0.887-7.292-2.455-10.44l56.258-56.257zm-68.803,98.697c0,4.687-3.813,8.5-8.5,8.5h-88c-4.687,0-8.5-3.813-8.5-8.5v-32c0-4.687 3.813-8.5 8.5-8.5h88c4.687,0 8.5,3.813 8.5,8.5v32z"/>
    <path d="m151.5,279h208c12.958,0 23.5-10.542 23.5-23.5v-16.936c0-17.029-10.854-32.088-27.009-37.474l-50.119-16.706c-0.954-0.318-1.927-0.43-2.872-0.367v-14.397c10.341-11.62 16-26.396 16-42.12v-17.734c9.29-3.138 16-11.93 16-22.266v-40c5.68434e-14-26.191-21.309-47.5-47.5-47.5h-64c-10.584,0-19.557,7.033-22.489,16.672-14.268,2.999-25.011,15.682-25.011,30.828v40c0,10.335 6.71,19.127 16,22.266v15.387c0,16.529 6.063,31.796 16,43.459v15.407c-0.945-0.063-1.917,0.048-2.872,0.366l-50.119,16.707c-16.155,5.385-27.009,20.444-27.009,37.472v16.936c0,12.958 10.542,23.5 23.5,23.5zm64-80c4.142,0 7.5-3.358 7.5-7.5v-9.919c9.01,5.649 19.437,9.056 30.552,9.39 0.659,0.02 1.315,0.029 1.971,0.029 11.614,0 22.742-3.101 32.477-8.927v9.427c0,4.142 3.358,7.5 7.5,7.5 0.105,0 0.207-0.011 0.311-0.016-1.954,18.497-19.284,33.016-40.311,33.016s-38.357-14.519-40.311-33.016c0.104,0.005 0.206,0.016 0.311,0.016zm-24.5-111.5v-40c0-9.098 7.402-16.5 16.5-16.5 4.142,0 7.5-3.358 7.5-7.5 0-4.687 3.813-8.5 8.5-8.5h64c17.92,0 32.5,14.579 32.5,32.5v40c0,1.442-0.364,2.8-1,3.992v-11.992c0-12.958-10.542-23.5-23.5-23.5h-80c-12.958,0-23.5,10.542-23.5,23.5v11.992c-0.637-1.192-1-2.55-1-3.992zm16-8c0-4.687 3.813-8.5 8.5-8.5h80c4.687,0 8.5,3.813 8.5,8.5v48c0,13.23-5.23,25.593-14.727,34.809-9.493,9.212-22.029,14.064-35.271,13.669-25.917-0.778-47.002-23.579-47.002-50.826v-45.652zm-64,159.064c0-10.563 6.732-19.903 16.752-23.243l40.673-13.557c3.343,25.452 26.758,45.236 55.075,45.236s51.732-19.784 55.075-45.236l40.673,13.557c10.02,3.34 16.752,12.681 16.752,23.243v16.936c0,4.687-3.813,8.5-8.5,8.5h-208c-4.687,0-8.5-3.813-8.5-8.5v-16.936z"/>
  </g>
</svg>
