<?xml version='1.0' encoding='iso-8859-1'?>
<svg version="1.1" xmlns="http://www.w3.org/2000/svg" viewBox="0 0 511 511" xmlns:xlink="http://www.w3.org/1999/xlink" enable-background="new 0 0 511 511">
  <g>
    <path d="m401.38,349.894c-0.299-0.084-0.604-0.149-0.911-0.195l-62.406-9.363c-10.092-6.529-11.044-22.723-11.063-40.259 19.708-20.313 32-48.909 32-80.542v-2.562c15.296-13.583 24-32.855 24-53.438v-48c0-39.425-32.075-71.5-71.5-71.5h-104c-14.929,0-27.465,10.44-30.693,24.401-27.458,3.317-48.807,26.762-48.807,55.099v40c0,20.586 8.703,39.856 24,53.439v2.561c0,31.633 12.292,60.229 31.999,80.542-0.018,17.536-0.971,33.729-11.063,40.259l-62.406,9.363c-0.307,0.046-0.611,0.111-0.911,0.195-13.725,3.845-25.403,12.356-33.772,24.615-7.639,11.19-11.847,24.698-11.847,38.036v30.99c0,12.92 11.526,23.431 25.693,23.431h331.613c14.167,0 25.693-10.511 25.693-23.431v-30.99c0-13.337-4.208-26.845-11.847-38.035-8.368-12.259-20.047-20.771-33.772-24.616zm-145.88-18.859c20.94,0 40.443-6.74 56.75-18.303 0.721,13.688 3.556,28.875 14.688,38.028-6.02,30.648-35.931,53.275-71.438,53.275s-65.418-22.627-71.438-53.275c11.133-9.153 13.967-24.34 14.688-38.028 16.307,11.563 35.81,18.303 56.75,18.303zm-88.5-116.808c0.042-0.457 0.041-0.914 0-1.369v-41.324c0-13.509 10.991-24.5 24.5-24.5h136c4.142,0 7.5-3.357 7.5-7.5 0-4.142-3.358-7.5-7.5-7.5h-136c-21.78,0-39.5,17.72-39.5,39.5v22.605c-5.817-9.005-9-19.562-9-30.605v-40c0-22.332 18.168-40.5 40.5-40.5 4.142,0 7.5-3.357 7.5-7.5 0-9.098 7.402-16.5 16.5-16.5h104c31.154,0 56.5,25.346 56.5,56.5v48c0,11.041-3.183,21.598-9,30.604v-30.604c0-4.142-3.358-7.5-7.5-7.5s-7.5,3.358-7.5,7.5v56c0,53.21-39.701,96.5-88.5,96.5s-88.5-43.29-88.5-96.5v-5.307zm265,229.308c0,4.57-4.897,8.431-10.693,8.431h-331.614c-5.796,0-10.693-3.861-10.693-8.431v-30.99c0-19.008 11.758-41.543 34.235-48.084l56.587-8.49c8.389,36.441 43.851,63.064 85.678,63.064s77.289-26.623 85.678-63.064l56.587,8.49c22.477,6.541 34.235,29.076 34.235,48.084v30.99z"/>
    <path d="m47.5,380.035h-28.229c-2.444,0-4.271-1.481-4.271-2.807v-20.051c0-11.261 6.893-24.589 20.075-28.519l40.826-6.125c0.177-0.026 0.348-0.066 0.521-0.105 0.075-0.017 0.151-0.026 0.226-0.045 0.28-0.071 0.551-0.161 0.816-0.262 0.064-0.024 0.127-0.054 0.19-0.081 0.218-0.09 0.43-0.189 0.637-0.298 0.034-0.018 0.071-0.03 0.105-0.049 0.066-0.036 0.126-0.076 0.192-0.113 0.056-0.033 0.112-0.064 0.167-0.098 9.087-5.184 12.232-14.571 13.315-23.744 9.956,5.908 21.388,9.281 33.544,9.281 10.203,0 20.037-2.318 29.229-6.891 3.708-1.845 5.22-6.346 3.375-10.055-1.845-3.709-6.347-5.22-10.056-3.375-7.098,3.53-14.685,5.321-22.548,5.321-30.115,5.68434e-14-54.614-26.821-54.614-59.788v-31.992c0-7.281 5.923-13.204 13.204-13.204h19.296c4.142,0 7.5-3.357 7.5-7.5 0-4.142-3.358-7.5-7.5-7.5h-19.296c-15.552,0-28.204,12.652-28.204,28.204v3.931c-0.652-2.642-1-5.379-1-8.171v-25.88c0-12.989 10.567-23.556 23.556-23.556 4.142,0 7.5-3.358 7.5-7.5 0-4.427 3.601-8.028 8.028-8.028h9.416c4.142,0 7.5-3.357 7.5-7.5 0-4.142-3.358-7.5-7.5-7.5h-9.416c-10.271,0-18.993,6.759-21.952,16.063-18.213,3.067-32.132,18.949-32.132,38.021v25.88c0,13.893 5.798,26.904 16,36.173v0.06c0,21.268 8.32,40.475 21.63,54.105-0.081,9.538-0.811,18.088-5.526,21.599l-39.744,5.963c-0.307,0.046-0.611,0.111-0.911,0.195-20.647,5.784-31.449,26.051-31.449,43.083v20.051c0,9.818 8.645,17.807 19.271,17.807h28.229c4.142,0 7.5-3.357 7.5-7.5 0-4.142-3.358-7.5-7.5-7.5z"/>
    <path d="m479.551,314.093c-0.299-0.083-0.604-0.149-0.911-0.195l-39.744-5.963c-4.715-3.511-5.446-12.061-5.527-21.598 13.31-13.631 21.63-32.838 21.63-54.106v-0.06c10.202-9.269 16-22.281 16-36.181v-40.456c0-21.78-17.72-39.5-39.5-39.5h-24c-4.142,0-7.5,3.358-7.5,7.5 0,4.143 3.358,7.5 7.5,7.5h24c13.509,0 24.5,10.991 24.5,24.5v40.464c0,2.792-0.348,5.529-1,8.171v-3.931c0-15.552-12.652-28.204-28.204-28.204h-19.295c-4.142,0-7.5,3.358-7.5,7.5 0,4.143 3.358,7.5 7.5,7.5h19.296c7.281,0 13.204,5.923 13.204,13.204v31.992c0,32.967-24.499,59.788-54.612,59.788-7.864,0-15.45-1.791-22.548-5.321-3.71-1.845-8.211-0.333-10.056,3.375-1.845,3.709-0.333,8.21 3.375,10.055 9.192,4.572 19.026,6.891 29.229,6.891 12.155,0 23.588-3.373 33.543-9.281 1.083,9.172 4.229,18.56 13.316,23.744 0.054,0.034 0.111,0.065 0.166,0.098 0.065,0.037 0.126,0.077 0.192,0.113 0.034,0.019 0.071,0.031 0.105,0.049 0.206,0.109 0.418,0.208 0.636,0.298 0.064,0.027 0.127,0.057 0.191,0.081 0.265,0.101 0.535,0.191 0.815,0.262 0.076,0.019 0.152,0.029 0.228,0.046 0.171,0.038 0.342,0.078 0.518,0.104l40.825,6.125c13.183,3.93 20.076,17.258 20.076,28.519v20.051c0,1.325-1.827,2.807-4.271,2.807h-28.228c-4.142,0-7.5,3.358-7.5,7.5 0,4.143 3.358,7.5 7.5,7.5h28.229c10.626,0 19.271-7.988 19.271-17.807v-20.051c0-17.031-10.802-37.298-31.449-43.083z"/>
  </g>
</svg>
