<?xml version='1.0' encoding='iso-8859-1'?>
<svg version="1.1" xmlns="http://www.w3.org/2000/svg" viewBox="0 0 511 511" xmlns:xlink="http://www.w3.org/1999/xlink" enable-background="new 0 0 511 511">
  <g>
    <path d="m503.5,344h-1.391c0.981-3.261 1.166-6.75 0.478-10.19l-11.315-56.578c-1.401-7.005-6.198-12.771-12.83-15.423l-26.714-10.686c7.187-7.354 11.272-17.292 11.272-27.623v-2.445c4.765-2.647 8-7.728 8-13.555v-24c0-17.369-14.131-31.5-31.5-31.5h-32c-8.547,0-15.5,6.953-15.5,15.5 0,0.275-0.224,0.5-0.5,0.5-8.547,0-15.5,6.953-15.5,15.5v24c0,5.827 3.235,10.908 8,13.555v1.07c0,11.565 4.795,22.195 12.457,29.715l-24.922,9.969c-6.633,2.653-11.429,8.419-12.83,15.423l-11.316,56.578c-0.688,3.44-0.503,6.929 0.478,10.19h-13.758c0.981-3.261 1.166-6.75 0.478-10.19l-11.315-56.577c-1.401-7.005-6.197-12.771-12.83-15.424l-26.714-10.686c7.187-7.354 11.272-17.292 11.272-27.623v-2.445c4.765-2.647 8-7.728 8-13.555v-24c0-17.369-14.131-31.5-31.5-31.5h-32c-8.547,0-15.5,6.953-15.5,15.5 0,0.275-0.224,0.5-0.5,0.5-8.547,0-15.5,6.953-15.5,15.5v24c0,5.827 3.235,10.908 8,13.555v1.07c0,11.565 4.795,22.195 12.457,29.715l-24.922,9.969c-6.633,2.653-11.429,8.419-12.83,15.423l-11.315,56.578c-0.688,3.44-0.503,6.929 0.478,10.19h-13.759c0.981-3.261 1.166-6.75 0.478-10.19l-11.315-56.577c-1.401-7.005-6.197-12.771-12.83-15.424l-26.714-10.686c7.187-7.354 11.272-17.292 11.272-27.623v-2.445c4.765-2.647 8-7.728 8-13.555v-24c0-17.369-14.131-31.5-31.5-31.5h-32c-8.547,0-15.5,6.953-15.5,15.5 0,0.275-0.224,0.5-0.5,0.5-8.547,0-15.5,6.953-15.5,15.5v24c0,5.827 3.235,10.908 8,13.555v1.07c0,11.565 4.795,22.195 12.457,29.715l-24.922,9.969c-6.633,2.653-11.429,8.419-12.83,15.423l-11.315,56.578c-0.688,3.44-0.503,6.929 0.478,10.19h-4.368c-4.142,0-7.5,3.358-7.5,7.5s3.358,7.5 7.5,7.5h34 92 76 92 76 92 34c4.142,0 7.5-3.358 7.5-7.5s-3.358-7.5-7.5-7.5zm-15.623-7.249c0.49,2.447-0.577,4.203-1.256,5.031-0.679,0.828-2.191,2.218-4.687,2.218h-2.934v-51.636l8.877,44.387zm-11.315-56.577l.8,4.001c-1.711-2.518-4.596-4.175-7.862-4.175h-10.195c1.278-2.729 2.238-5.596 2.859-8.547l10.707,4.283c1.908,0.763 3.288,2.422 3.691,4.438zm-77.562-58.049v-14.625c0-0.275 0.224-0.5 0.5-0.5h48c0.276,0 0.5,0.225 0.5,0.5v16c0,6.888-2.925,13.497-8.025,18.134-5.169,4.7-11.882,6.919-18.906,6.25-12.375-1.181-22.069-12.495-22.069-25.759zm-7.5-39.125c8.547,0 15.5-6.953 15.5-15.5 0-0.275 0.224-0.5 0.5-0.5h32c9.098,0 16.5,7.402 16.5,16.5v11.053c-2.443-1.609-5.362-2.553-8.5-2.553h-48c-3.138,0-6.057,0.944-8.5,2.553v-11.053c0-0.275 0.224-0.5 0.5-0.5zm28.145,79.815c1.259,0.12 2.517,0.18 3.772,0.18 4.657,0 9.249-0.828 13.57-2.395 0.732,0.789 1.639,1.438 2.704,1.864l8.2,3.28c-0.49,5.33-2.719,10.265-6.447,14.256h-35.887c-3.461-3.706-5.628-8.226-6.314-13.119l11.043-4.417c0.718-0.288 1.367-0.674 1.938-1.136 2.387,0.737 4.868,1.244 7.421,1.487zm-42.539,12.92l7.981-3.192c0.617,2.567 1.489,5.066 2.609,7.457h-10.196c-1.531,0-2.973,0.373-4.255,1.018l.169-.845c0.403-2.015 1.783-3.674 3.692-4.438zm-15.008,61.016l5.902-29.508v36.754c-2.47-0.016-3.97-1.392-4.646-2.215-0.679-0.829-1.745-2.584-1.256-5.031zm-42.221,0c0.49,2.447-0.577,4.203-1.256,5.031-0.679,0.828-2.191,2.218-4.687,2.218h-2.934v-51.636l8.877,44.387zm-11.315-56.577l.8,4.001c-1.711-2.518-4.596-4.175-7.862-4.175h-10.195c1.278-2.729 2.238-5.596 2.859-8.547l10.707,4.283c1.908,0.763 3.288,2.422 3.691,4.438zm-77.562-58.049v-14.625c0-0.275 0.224-0.5 0.5-0.5h48c0.276,0 0.5,0.225 0.5,0.5v16c0,6.888-2.925,13.497-8.025,18.134-5.169,4.7-11.884,6.919-18.906,6.25-12.375-1.181-22.069-12.495-22.069-25.759zm-7.5-39.125c8.547,0 15.5-6.953 15.5-15.5 0-0.275 0.224-0.5 0.5-0.5h32c9.098,0 16.5,7.402 16.5,16.5v11.053c-2.443-1.609-5.362-2.553-8.5-2.553h-48c-3.138,0-6.057,0.944-8.5,2.553v-11.053c0-0.275 0.224-0.5 0.5-0.5zm28.145,79.815c1.259,0.12 2.517,0.18 3.772,0.18 4.657,0 9.249-0.828 13.57-2.395 0.732,0.789 1.639,1.438 2.704,1.864l8.2,3.28c-0.49,5.33-2.719,10.265-6.447,14.256h-35.887c-3.461-3.706-5.628-8.226-6.314-13.119l11.043-4.417c0.718-0.288 1.367-0.674 1.938-1.136 2.387,0.737 4.868,1.244 7.421,1.487zm-42.539,12.92l7.981-3.192c0.617,2.567 1.489,5.066 2.609,7.457h-10.196c-1.531,0-2.973,0.373-4.255,1.018l.169-.845c0.403-2.015 1.783-3.674 3.692-4.438zm-15.007,61.016l5.901-29.507v36.753c-2.47-0.016-3.97-1.392-4.646-2.215-0.679-0.828-1.745-2.584-1.255-5.031zm-42.222,0c0.49,2.447-0.577,4.203-1.256,5.031-0.679,0.828-2.191,2.218-4.687,2.218h-2.934v-51.636l8.877,44.387zm-11.315-56.577l.8,4.001c-1.711-2.518-4.596-4.175-7.862-4.175h-10.195c1.278-2.729 2.238-5.596 2.859-8.547l10.707,4.283c1.908,0.763 3.288,2.422 3.691,4.438zm-77.562-58.049v-14.625c0-0.275 0.224-0.5 0.5-0.5h48c0.276,0 0.5,0.225 0.5,0.5v16c0,6.888-2.925,13.497-8.025,18.134-5.169,4.7-11.882,6.919-18.906,6.25-12.375-1.181-22.069-12.495-22.069-25.759zm-7.5-39.125c8.547,0 15.5-6.953 15.5-15.5 0-0.275 0.224-0.5 0.5-0.5h32c9.098,0 16.5,7.402 16.5,16.5v11.053c-2.443-1.609-5.362-2.553-8.5-2.553h-48c-3.138,0-6.057,0.944-8.5,2.553v-11.053c0-0.275 0.224-0.5 0.5-0.5zm28.145,79.815c1.259,0.12 2.517,0.18 3.772,0.18 4.657,0 9.249-0.828 13.57-2.395 0.732,0.789 1.639,1.438 2.704,1.864l8.2,3.28c-0.49,5.33-2.719,10.265-6.447,14.256h-35.888c-3.461-3.706-5.628-8.226-6.314-13.119l11.043-4.417c0.718-0.288 1.367-0.674 1.938-1.136 2.388,0.737 4.869,1.244 7.422,1.487zm-42.539,12.92l7.981-3.192c0.617,2.567 1.489,5.066 2.609,7.457h-10.196c-1.531,0-2.973,0.373-4.255,1.018l.169-.845c0.403-2.015 1.783-3.674 3.692-4.438zm-15.007,61.016l5.901-29.507v36.753c-2.47-0.016-3.97-1.392-4.646-2.215-0.679-0.828-1.745-2.584-1.255-5.031zm20.901,7.249v-49h81v49h-81zm168,0v-49h81v49h-81zm168,0v-49h81v49h-81z"/>
    <path d="m263.5,312h-16c-4.142,0-7.5,3.358-7.5,7.5s3.358,7.5 7.5,7.5h16c4.142,0 7.5-3.358 7.5-7.5s-3.358-7.5-7.5-7.5z"/>
    <path d="m431.5,312h-16c-4.142,0-7.5,3.358-7.5,7.5s3.358,7.5 7.5,7.5h16c4.142,0 7.5-3.358 7.5-7.5s-3.358-7.5-7.5-7.5z"/>
    <path d="m95.5,312h-16c-4.142,0-7.5,3.358-7.5,7.5s3.358,7.5 7.5,7.5h16c4.142,0 7.5-3.358 7.5-7.5s-3.358-7.5-7.5-7.5z"/>
  </g>
</svg>
